:FULLY-SPECIFIED
:FORCE-ALL-JOINTS-BE-3DOF
:DEGREES
1
root 6.24314 16.836 -28.1378 9.0217 -2.52979 -3.05774
lfemur -20.3712 2.30257 -19.9954
ltibia 35.927 0 0
lfoot -38.654 3.93715 0
ltoes 38.9541 0 0
rfemur -19.4747 0.22019 19.5256
rtibia 36.0342 0 0
rfoot -30.3779 -10.4967 0
rtoes 21.4483 0 0
lowerback -2.05144 3.66971 -5.03766
upperback -2.66728 5.00355 3.49279
thorax -2.36397 2.67023 6.42441
lowerneck -9.84699 -2.36864 1.94815
upperneck -1.37933 -3.32542 -1.65382
head 1.16433 -1.69823 -0.975663
lclavicle -1.65488e-14 -3.69739e-14 0
lhumerus -41.7253 -10.8128 99.8312
lradius 34.5094 0 0
lwrist 2.17521 0 0
lhand -10.5949 9.65639 0
lfingers 7.12502 0 0
lthumb 15.4107 39.062 0
rclavicle -1.65488e-14 -3.69739e-14 0
rhumerus -43.273 -4.86223 -84.2703
rradius 40.4763 0 0
rwrist 9.89469 0 0
rhand -23.7965 -22.476 0
rfingers 7.12502 0 0
rthumb 2.67393 -52.439 0
2
root 6.23542 16.8376 -28.1365 9.04921 -2.50712 -3.03223
lfemur -20.3701 2.27946 -19.9907
ltibia 35.8754 -0 0
lfoot -38.5721 3.94603 0.00025405
ltoes 38.8621 -0 0
rfemur -19.4117 0.372957 19.521
rtibia 35.8967 -0 0
rfoot -30.2975 -10.7 -0.00571997
rtoes 21.1992 -0 0
lowerback -2.14046 3.63299 -4.92115
upperback -2.64596 4.95634 3.41191
thorax -2.27329 2.63819 6.28089
lowerneck -9.83863 -2.34793 1.97267
upperneck -1.41878 -3.30183 -1.58383
head 1.15123 -1.68526 -0.956579
lclavicle -1.54825e-14 -3.58006e-14 -4.36736e-31
lhumerus -41.7191 -10.8685 99.7494
lradius 34.6498 -0 0
lwrist 2.28394 0 0
lhand -10.6272 9.50548 0.0017055
lfingers 7.12502 -0 0
lthumb 15.3795 38.9134 0.00161816
rclavicle -1.54825e-14 -3.58006e-14 -4.36736e-31
rhumerus -43.1983 -4.87065 -84.403
rradius 40.4377 -0 0
rwrist 9.9215 0 0
rhand -23.868 -22.4227 -0.00133087
rfingers 7.12502 -0 0
rthumb 2.60492 -52.3861 -0.0012756
3
root 6.2277 16.8391 -28.1351 9.07673 -2.48447 -3.00671
lfemur -20.369 2.25636 -19.9861
ltibia 35.8238 -0 0
lfoot -38.4902 3.95492 0.000495408
ltoes 38.7702 -0 0
rfemur -19.3486 0.52573 19.5165
rtibia 35.7592 -0 0
rfoot -30.217 -10.9034 -0.0111545
rtoes 20.9501 -0 0
lowerback -2.22956 3.59645 -4.80459
upperback -2.62458 4.90915 3.33102
thorax -2.18252 2.60637 6.13732
lowerneck -9.83026 -2.32722 1.9972
upperneck -1.45819 -3.27819 -1.51386
head 1.13813 -1.67229 -0.937499
lclavicle -1.44161e-14 -3.46273e-14 -8.51636e-31
lhumerus -41.7129 -10.9243 99.6675
lradius 34.7902 -0 0
lwrist 2.39267 0 0
lhand -10.6596 9.35456 0.00332579
lfingers 7.12502 -0 0
lthumb 15.3484 38.7647 0.00315548
rclavicle -1.44161e-14 -3.46273e-14 -8.51636e-31
rhumerus -43.1236 -4.8789 -84.5357
rradius 40.3991 -0 0
rwrist 9.94831 0 0
rhand -23.9394 -22.3693 -0.00259526
rfingers 7.12502 -0 0
rthumb 2.53591 -52.3331 -0.00248747
4
root 6.21998 16.8407 -28.1338 9.10425 -2.46183 -2.98118
lfemur -20.3678 2.23325 -19.9814
ltibia 35.7722 -0 0
lfoot -38.4083 3.9638 0.000724071
ltoes 38.6782 -0 0
rfemur -19.2856 0.678507 19.5122
rtibia 35.6217 -0 0
rfoot -30.1365 -11.1067 -0.0163034
rtoes 20.701 -0 0
lowerback -2.31872 3.56009 -4.68797
upperback -2.60313 4.862 3.25012
thorax -2.09169 2.57478 5.99371
lowerneck -9.82188 -2.30651 2.02173
upperneck -1.49758 -3.2545 -1.44391
head 1.12503 -1.65931 -0.918421
lclavicle -1.33498e-14 -3.3454e-14 -1.2447e-30
lhumerus -41.7065 -10.98 99.5857
lradius 34.9306 -0 0
lwrist 2.5014 0 0
lhand -10.6919 9.20365 0.00486088
lfingers 7.12502 -0 0
lthumb 15.3172 38.6161 0.00461195
rclavicle -1.33498e-14 -3.3454e-14 -1.2447e-30
rhumerus -43.0488 -4.88698 -84.6685
rradius 40.3605 -0 0
rwrist 9.97512 0 0
rhand -24.0109 -22.316 -0.00379316
rfingers 7.12502 -0 0
rthumb 2.46689 -52.2802 -0.00363561
5
root 6.21226 16.8423 -28.1325 9.13179 -2.4392 -2.95563
lfemur -20.3667 2.21015 -19.9767
ltibia 35.7206 -0 0
lfoot -38.3264 3.97269 0.000940039
ltoes 38.5862 -0 0
rfemur -19.2226 0.831288 19.5081
rtibia 35.4842 -0 0
rfoot -30.0561 -11.3101 -0.0211667
rtoes 20.4519 -0 0
lowerback -2.40796 3.52391 -4.5713
upperback -2.58161 4.81487 3.1692
thorax -2.00077 2.54342 5.85005
lowerneck -9.8135 -2.28581 2.04626
upperneck -1.53694 -3.23077 -1.37397
head 1.11194 -1.64633 -0.899346
lclavicle -1.22834e-14 -3.22807e-14 -1.61592e-30
lhumerus -41.7001 -11.0357 99.5038
lradius 35.071 -0 0
lwrist 2.61014 0 0
lhand -10.7243 9.05273 0.00631075
lfingers 7.12502 -0 0
lthumb 15.286 38.4675 0.00598756
rclavicle -1.22834e-14 -3.22807e-14 -1.61592e-30
rhumerus -42.9741 -4.89488 -84.8012
rradius 40.3219 -0 0
rwrist 10.0019 0 0
rhand -24.0823 -22.2626 -0.00492455
rfingers 7.12502 -0 0
rthumb 2.39787 -52.2273 -0.00472001
6
root 6.20454 16.8439 -28.1311 9.15934 -2.41658 -2.93008
lfemur -20.3656 2.18704 -19.9721
ltibia 35.669 -0 0
lfoot -38.2445 3.98158 0.00114331
ltoes 38.4943 -0 0
rfemur -19.1596 0.984075 19.5042
rtibia 35.3468 -0 0
rfoot -29.9755 -11.5134 -0.0257443
rtoes 20.2028 -0 0
lowerback -2.49726 3.48791 -4.45458
upperback -2.56003 4.76778 3.08827
thorax -1.90978 2.51228 5.70635
lowerneck -9.8051 -2.26511 2.07079
upperneck -1.57627 -3.20698 -1.30405
head 1.09885 -1.63334 -0.880275
lclavicle -1.12171e-14 -3.11073e-14 -1.96531e-30
lhumerus -41.6936 -11.0914 99.4219
lradius 35.2113 -0 0
lwrist 2.71888 0 0
lhand -10.7567 8.90181 0.00767538
lfingers 7.12502 -0 0
lthumb 15.2549 38.3188 0.00728231
rclavicle -1.12171e-14 -3.11073e-14 -1.96531e-30
rhumerus -42.8993 -4.90262 -84.934
rradius 40.2833 -0 0
rwrist 10.0287 0 0
rhand -24.1538 -22.2093 -0.00598944
rfingers 7.12502 -0 0
rthumb 2.32885 -52.1743 -0.00574065
7
root 6.19682 16.8454 -28.1298 9.1869 -2.39398 -2.90452
lfemur -20.3645 2.16393 -19.9674
ltibia 35.6174 -0 0
lfoot -38.1626 3.99046 0.00133388
ltoes 38.4023 -0 0
rfemur -19.0967 1.13687 19.5004
rtibia 35.2093 -0 0
rfoot -29.895 -11.7168 -0.0300361
rtoes 19.9537 -0 0
lowerback -2.58664 3.45209 -4.33781
upperback -2.53838 4.72071 3.00732
thorax -1.81871 2.48138 5.5626
lowerneck -9.7967 -2.24442 2.09533
upperneck -1.61557 -3.18315 -1.23415
head 1.08577 -1.62035 -0.861207
lclavicle -1.01507e-14 -2.9934e-14 -2.29287e-30
lhumerus -41.687 -11.1471 99.3399
lradius 35.3517 -0 0
lwrist 2.82763 0 0
lhand -10.789 8.75089 0.00895477
lfingers 7.12502 -0 0
lthumb 15.2237 38.1702 0.00849618
rclavicle -1.01507e-14 -2.9934e-14 -2.29287e-30
rhumerus -42.8245 -4.91017 -85.0668
rradius 40.2447 -0 0
rwrist 10.0555 0 0
rhand -24.2252 -22.156 -0.0069878
rfingers 7.12502 -0 0
rthumb 2.25983 -52.1214 -0.00669755
8
root 6.1891 16.847 -28.1285 9.21446 -2.37138 -2.87894
lfemur -20.3634 2.14083 -19.9627
ltibia 35.5658 -0 0
lfoot -38.0807 3.99935 0.00151175
ltoes 38.3103 -0 0
rfemur -19.0337 1.28966 19.4968
rtibia 35.0718 -0 0
rfoot -29.8145 -11.9202 -0.034042
rtoes 19.7046 -0 0
lowerback -2.67609 3.41646 -4.22099
upperback -2.51667 4.67367 2.92636
thorax -1.72757 2.4507 5.4188
lowerneck -9.78829 -2.22372 2.11987
upperneck -1.65484 -3.15927 -1.16426
head 1.07269 -1.60736 -0.842141
lclavicle -9.08438e-15 -2.87607e-14 -2.59858e-30
lhumerus -41.6803 -11.2028 99.258
lradius 35.4921 -0 0
lwrist 2.93637 0 0
lhand -10.8214 8.59997 0.0101489
lfingers 7.12502 -0 0
lthumb 15.1925 38.0216 0.00962916
rclavicle -9.08438e-15 -2.87607e-14 -2.59858e-30
rhumerus -42.7497 -4.91756 -85.1996
rradius 40.2061 -0 0
rwrist 10.0824 0 0
rhand -24.2967 -22.1026 -0.00791964
rfingers 7.12502 -0 0
rthumb 2.1908 -52.0684 -0.00759067
9
root 6.18138 16.8486 -28.1271 9.24204 -2.3488 -2.85336
lfemur -20.3623 2.11772 -19.9581
ltibia 35.5142 -0 0
lfoot -37.9988 4.00824 0.00167693
ltoes 38.2183 -0 0
rfemur -18.9707 1.44246 19.4933
rtibia 34.9343 -0 0
rfoot -29.7339 -12.1235 -0.0377621
rtoes 19.4555 -0 0
lowerback -2.7656 3.38101 -4.10412
upperback -2.49489 4.62666 2.84538
thorax -1.63635 2.42025 5.27496
lowerneck -9.77987 -2.20304 2.14441
upperneck -1.69408 -3.13534 -1.09439
head 1.05962 -1.59436 -0.823079
lclavicle -8.01803e-15 -2.75874e-14 -2.88246e-30
lhumerus -41.6736 -11.2585 99.176
lradius 35.6325 -0 0
lwrist 3.04512 0 0
lhand -10.8538 8.44905 0.0112578
lfingers 7.12502 -0 0
lthumb 15.1613 37.873 0.0106812
rclavicle -8.01803e-15 -2.75874e-14 -2.88246e-30
rhumerus -42.6748 -4.92477 -85.3324
rradius 40.1675 -0 0
rwrist 10.1092 0 0
rhand -24.3682 -22.0493 -0.00878495
rfingers 7.12502 -0 0
rthumb 2.12178 -52.0155 -0.00842003
10
root 6.17366 16.8502 -28.1258 9.26963 -2.32623 -2.82776
lfemur -20.3612 2.09462 -19.9534
ltibia 35.4626 -0 0
lfoot -37.9169 4.01712 0.0018294
ltoes 38.1263 -0 0
rfemur -18.9077 1.59526 19.4901
rtibia 34.7968 -0 0
rfoot -29.6534 -12.3269 -0.0411962
rtoes 19.2064 -0 0
lowerback -2.85518 3.34574 -3.98719
upperback -2.47304 4.57968 2.7644
thorax -1.54506 2.39003 5.13107
lowerneck -9.77144 -2.18235 2.16895
upperneck -1.73329 -3.11136 -1.02454
head 1.04655 -1.58135 -0.80402
lclavicle -6.95168e-15 -2.64141e-14 -3.1445e-30
lhumerus -41.6667 -11.3142 99.094
lradius 35.7729 -0 0
lwrist 3.15388 0 0
lhand -10.8861 8.29813 0.0122814
lfingers 7.12502 -0 0
lthumb 15.1301 37.7243 0.0116524
rclavicle -6.95168e-15 -2.64141e-14 -3.1445e-30
rhumerus -42.6 -4.93182 -85.4652
rradius 40.1289 -0 0
rwrist 10.136 0 0
rhand -24.4397 -21.9959 -0.00958373
rfingers 7.12502 -0 0
rthumb 2.05275 -51.9626 -0.00918562
11
root 6.16594 16.8517 -28.1245 9.29722 -2.30368 -2.80216
lfemur -20.3601 2.07151 -19.9487
ltibia 35.411 -0 0
lfoot -37.835 4.02601 0.00196917
ltoes 38.0344 -0 0
rfemur -18.8448 1.74807 19.487
rtibia 34.6593 -0 0
rfoot -29.5728 -12.5303 -0.0443443
rtoes 18.9573 -0 0
lowerback -2.94484 3.31065 -3.87022
upperback -2.45113 4.53273 2.68339
thorax -1.4537 2.36004 4.98714
lowerneck -9.763 -2.16167 2.1935
upperneck -1.77247 -3.08734 -0.954704
head 1.03348 -1.56835 -0.784963
lclavicle -5.88534e-15 -2.52408e-14 -3.38471e-30
lhumerus -41.6598 -11.3699 99.0119
lradius 35.9133 -0 0
lwrist 3.26263 0 0
lhand -10.9185 8.14721 0.0132197
lfingers 7.12502 -0 0
lthumb 15.0989 37.5757 0.0125427
rclavicle -5.88534e-15 -2.52408e-14 -3.38471e-30
rhumerus -42.5251 -4.93868 -85.598
rradius 40.0903 -0 0
rwrist 10.1628 0 0
rhand -24.5111 -21.9425 -0.010316
rfingers 7.12502 -0 0
rthumb 1.98372 -51.9096 -0.00988742
12
root 6.15823 16.8533 -28.1231 9.32483 -2.28113 -2.77654
lfemur -20.359 2.0484 -19.9441
ltibia 35.3594 -0 0
lfoot -37.7531 4.0349 0.00209623
ltoes 37.9424 -0 0
rfemur -18.7818 1.90087 19.484
rtibia 34.5218 -0 0
rfoot -29.4922 -12.7337 -0.0472064
rtoes 18.7082 -0 0
lowerback -3.03456 3.27574 -3.75319
upperback -2.42916 4.48582 2.60237
thorax -1.36226 2.33028 4.84316
lowerneck -9.75455 -2.14099 2.21805
upperneck -1.81162 -3.06327 -0.884886
head 1.02042 -1.55533 -0.76591
lclavicle -4.81899e-15 -2.40675e-14 -3.60307e-30
lhumerus -41.6528 -11.4255 98.9299
lradius 36.0537 -0 0
lwrist 3.37139 0 0
lhand -10.9509 7.99629 0.0140728
lfingers 7.12502 -0 0
lthumb 15.0677 37.427 0.0133521
rclavicle -4.81899e-15 -2.40675e-14 -3.60307e-30
rhumerus -42.4502 -4.94538 -85.7308
rradius 40.0517 -0 0
rwrist 10.1896 0 0
rhand -24.5826 -21.8892 -0.0109816
rfingers 7.12502 -0 0
rthumb 1.91468 -51.8567 -0.0105254
13
root 6.15051 16.8549 -28.1218 9.35244 -2.2586 -2.75092
lfemur -20.3579 2.0253 -19.9394
ltibia 35.3078 -0 0
lfoot -37.6712 4.04379 0.00221059
ltoes 37.8504 -0 0
rfemur -18.7189 2.05369 19.4812
rtibia 34.3843 -0 0
rfoot -29.4116 -12.9371 -0.0497824
rtoes 18.4591 -0 0
lowerback -3.12435 3.24102 -3.63611
upperback -2.40711 4.43893 2.52134
thorax -1.27075 2.30075 4.69914
lowerneck -9.7461 -2.12032 2.2426
upperneck -1.85074 -3.03915 -0.815086
head 1.00737 -1.54232 -0.74686
lclavicle -3.75264e-15 -2.28942e-14 -3.79961e-30
lhumerus -41.6457 -11.4812 98.8478
lradius 36.1941 -0 0
lwrist 3.48015 0 0
lhand -10.9833 7.84537 0.0148406
lfingers 7.12502 -0 0
lthumb 15.0365 37.2784 0.0140805
rclavicle -3.75264e-15 -2.28942e-14 -3.79961e-30
rhumerus -42.3753 -4.9519 -85.8637
rradius 40.0131 -0 0
rwrist 10.2164 0 0
rhand -24.6541 -21.8358 -0.0115808
rfingers 7.12502 -0 0
rthumb 1.84565 -51.8037 -0.0110997
